<svg width="1295" height="982" viewBox="0 0 1295 982" fill="none" xmlns="http://www.w3.org/2000/svg">
<path d="M652.667 -1.99975C564 4.00025 468.933 39.8669 396 94.8002C296.533 169.6 228.267 276.4 208.133 388.667C197.067 450 197.867 518.267 210.133 577.334C218.667 618 234.133 661.467 252.4 695.334C291.867 769.2 345.733 828.667 414.667 874.667C476 915.6 533.6 939.334 600 951.2C656.4 961.2 700.4 961.467 754.933 951.867C835.2 937.867 912.4 901.867 983.067 845.734C1069.73 776.8 1131.73 675.467 1151.87 570C1158.27 536.134 1159.2 524.667 1159.2 478C1159.33 430.267 1158.53 421.734 1151.2 384.667C1126.27 260.134 1048.27 148.667 935.333 76.5336C901.867 55.0669 851.467 31.4669 814 19.4669C779.867 8.53359 738.533 0.666919 702.667 -1.99975C681.467 -3.46641 674.667 -3.46641 652.667 -1.99975ZM733.333 41.8669C773.067 48.0002 814.533 60.6669 852.267 78.0002C908.133 103.867 948.667 131.867 990.667 174C1042.53 225.867 1076.4 279.734 1097.33 344.134C1125.33 430.134 1124.53 535.2 1095.33 619.2C1057.07 729.067 976.133 818.8 865.333 873.867C820.667 896.134 772.533 910.667 723.333 916.8C702.933 919.467 649.467 918.934 630 916.134C546 903.867 479.6 875.2 409.867 821.067C389.333 805.2 355.867 772.8 338.8 752C323.467 733.467 302.133 700.934 290.133 678C256.8 613.734 242.667 554 242.667 476.8C242.667 408 256 349.2 284.667 290.667C308.267 242.534 336.533 203.867 377.467 164C414.4 128 445.333 106.4 493.067 82.8002C540.133 59.7336 584.8 46.0002 632.667 40.1336C656.133 37.2003 709.333 38.1336 733.333 41.8669Z" fill="white"/>
<path d="M717.333 87.4668C709.067 90.8002 704 98.8002 704 108.667C704 116.8 706.267 121.467 712.667 127.2C716.8 130.8 718.4 131.333 724.933 131.333C740.267 131.333 750.667 118.133 746.667 103.467C743.067 90.1335 729.333 82.6668 717.333 87.4668Z" fill="white"/>
<path d="M655.2 97.2001C654.8 98.2668 654.667 101.067 654.933 103.6L655.333 108H670H684.533L685.867 103.733C687.867 96.4001 685.733 95.3335 669.733 95.3335C659.067 95.3335 655.733 95.7335 655.2 97.2001Z" fill="white"/>
<path d="M623.733 99.2001C609.733 101.733 606.8 103.867 609.333 109.867C611.2 114.533 613.2 114.933 626.133 112.667C640.667 110.133 640 110.533 640 104.933C640 100.4 638 96.4001 636.133 96.8001C635.6 96.9335 630.133 98.0001 623.733 99.2001Z" fill="white"/>
<path d="M581.733 108.667C576.533 111.733 575.867 116.533 580 120.667C583.2 123.867 585.067 124 591.867 121.2C598 118.8 599.6 115.6 597.067 110.4C594.8 105.6 587.867 104.8 581.733 108.667Z" fill="white"/>
<path d="M767.333 110.267C765.867 111.067 764.267 112.4 763.733 113.2C760.533 117.867 765.467 124.667 772 124.667C776.133 124.667 781.333 120.667 781.333 117.467C781.333 112 772.267 107.334 767.333 110.267Z" fill="white"/>
<path d="M474.933 126L475.333 139.733L481.467 141.2C497.733 145.333 505.6 160.4 498.667 174C494.933 181.467 488 186.267 480 187.067C471.333 187.867 467.6 186.8 462 181.733C455.6 176.133 453.333 171.467 453.333 163.467V156.8L442.133 150.133C436 146.4 430.4 143.333 429.6 143.333C426.933 143.333 424.667 153.333 424.8 164.667C424.8 179.867 428.267 188.667 438.8 199.867C459.733 222.267 493.333 222.4 514.533 200C530.533 183.067 534 161.733 524 141.2C516.667 126.267 499.467 114.533 482.667 113.067L474.533 112.267L474.933 126Z" fill="white"/>
<path d="M554.267 120.4C549.6 125.6 553.067 134 559.733 134C563.467 134 568 129.467 568 126C568 122.4 563.333 118 559.6 118C557.867 118 555.467 119.067 554.267 120.4Z" fill="white"/>
<path d="M793.467 125.467C791.867 127.467 790.667 129.734 790.667 130.667C790.667 133.067 796.267 137.734 801.2 139.467C804.933 140.8 806 140.667 809.067 138.4C814.4 134.4 814 128.934 808.133 125.067C802 120.934 796.933 121.067 793.467 125.467Z" fill="white"/>
<path d="M820.8 140.133C819.6 141.2 818.667 143.6 818.667 145.2C818.667 149.467 824.8 155.333 829.2 155.333C833.733 155.333 838.667 150.8 838.667 146.667C838.667 139.867 825.733 135.067 820.8 140.133Z" fill="white"/>
<path d="M906.667 173.334V200.667H933.2C947.867 200.667 960.133 200.267 960.4 199.6C961.467 198 957.6 185.067 954 177.867C949.867 169.867 941.6 160.534 933.733 155.067C927.467 150.8 914.8 146 909.733 146H906.667V173.334Z" fill="white"/>
<path d="M880.8 153.334C865.733 159.467 853.733 172.4 849.2 187.6C838.8 221.734 862.8 256.534 898.4 258.934C910.8 259.867 918.266 258.267 929.6 252.267C943.333 245.2 956 228.534 958.267 214.667L959.067 210H931.867C909.333 210 904.133 209.6 901.6 207.867C898.666 205.867 898.666 205.334 898.666 177.867V150H893.733C890.933 150 885.2 151.467 880.8 153.334Z" fill="white"/>
<path d="M652.933 176.667C590.267 184.533 537.867 214.933 499.867 265.333C468.933 306.267 452.933 358.8 455.067 412.667C456.933 461.2 472.8 504.933 502.133 542.8C512.133 555.733 533.067 575.867 544.4 583.467L552.667 588.933L553.067 567.867L553.467 546.933L543.6 536.8C538.267 531.2 530.8 522.4 527.067 517.333C519.867 507.467 509.333 489.2 509.333 486.267C509.333 485.067 515.6 484.667 536 484.667H562.533L566.267 476.933C568.8 471.867 574 465.333 582 457.333L594 445.333L592.267 433.333C590.133 419.6 589.467 374.933 591.067 361.6L592.267 352.667H626.133H660V384V415.467L675.733 415.067L691.333 414.667L691.733 383.6L692 352.667H725.333H758.533L759.6 358.933C761.467 369.867 760.533 422.8 758.4 434.667L756.4 445.2L767.867 456.667C775.333 464 780.933 470.933 783.733 476.267L788.133 484.667H814.8C833.6 484.667 841.333 485.067 841.333 486.133C841.333 488.667 831.067 506.4 824 516.133C820.267 521.2 812.8 529.867 807.333 535.467L797.2 545.6L797.6 567.2L798 588.667L804.667 584.133C821.6 572.533 842.4 551.2 855.867 531.333C885.733 487.333 898.933 438.267 894.667 386C890 328 867.733 278.933 828.133 239.2C817.067 228.267 807.067 219.733 798.667 214.133C773.867 197.733 742.933 184.8 714.933 179.2C700.133 176.267 666.933 174.8 652.933 176.667ZM712.8 217.733C723.333 231.467 736.267 257.2 743.467 278.667C748.533 293.867 754.933 321.333 753.6 322.667C753.2 323.067 739.2 323.333 722.4 323.333H692V267.6V211.733L701.467 213.6C707.333 214.667 711.733 216.267 712.8 217.733ZM660 268V323.333H628.8C611.6 323.333 597.2 322.933 596.933 322.267C596 320.8 599.733 304.4 604.8 287.467C612.4 262.533 626.4 232.4 637.2 218.133C639.6 214.933 645.333 213.333 656.4 212.8L660 212.667V268ZM588.133 243.467C580.667 259.6 575.2 275.6 568.8 300.667L563.2 322.667L535.6 322.933C517.2 323.067 508 322.667 508 321.733C508 318.4 520.133 297.467 528.933 285.867C542.267 268.133 560.533 251.333 578.133 240.4C586.133 235.467 592.8 231.6 592.933 231.867C593.2 232.133 591.067 237.333 588.133 243.467ZM778 244C801.2 258.933 824.533 284.667 837.733 309.6C845.467 324.4 847.067 323.467 815.067 323.067L787.6 322.667L783.733 306C778.8 285.067 769.733 257.333 762.8 242.533L757.467 231.2L762.4 234.133C765.067 235.733 772.133 240.267 778 244ZM559.467 389.733C559.467 420.533 560 429.067 562.133 441.067L564.8 455.333L531.467 455.067L498.133 454.667L495.867 445.333C489.067 418.667 488.933 389.2 495.467 361.6L497.6 352.667H528.533H559.333L559.467 389.733ZM855.067 361.6C858.8 377.867 860.4 396.533 859.6 411.2C858.667 425.867 855.733 445.867 853.333 451.867L852 455.333H819.2H786.267L787.2 448.933C791.333 419.733 792.267 404.933 791.733 379.6L791.2 352.667H822.133H853.067L855.067 361.6Z" fill="white"/>
<path d="M435.333 245.2C432.8 250.4 428.933 255.067 424.667 258.667L417.867 264.134L424.667 268C428.667 270.4 433.067 274.534 435.467 278.267L439.733 284.534L443.733 278.267C446 274.8 450.533 270.134 453.867 268C459.6 264.267 461.467 262 458.933 262C456 262 446.4 251.734 443.067 244.934L439.333 237.334L435.333 245.2Z" fill="white"/>
<path d="M348.533 251.734C344.8 255.2 343.6 257.334 343.067 262.134C340.933 281.334 365.067 289.467 374.4 272.8C378.133 266.134 378.133 260.934 374.267 255.2C370.533 249.6 366.267 247.334 358.933 247.334C354.4 247.334 352.4 248.134 348.533 251.734Z" fill="white"/>
<path d="M960.667 268.8C949.067 274.534 942.533 284.934 942.533 297.467C942.533 310.534 948.8 320.8 960.267 326.534C981.733 337.2 1005.33 322.534 1005.6 298.134C1005.73 285.2 998.667 273.867 987.333 268.534C980.133 265.2 967.733 265.334 960.667 268.8Z" fill="white"/>
<path d="M322.933 281.067C321.467 282.667 319.2 286.267 318 289.067C316.267 293.333 316.133 294.533 317.867 298.533C321.467 307.2 329.733 308.533 336.8 301.467C340.533 297.733 341.333 295.867 341.333 291.333C341.333 280.533 329.6 274 322.933 281.067Z" fill="white"/>
<path d="M1025.33 288V295.334H1020.67C1016.27 295.334 1016 295.6 1016 300C1016 304.4 1016.27 304.667 1020.67 304.667H1025.2L1025.6 313.6L1026 322.667H1030.67C1035.2 322.667 1035.33 322.534 1034.93 317.6C1034.67 314.934 1034.8 310.8 1035.33 308.667C1036.13 305.2 1036.8 304.667 1040.8 304.667C1045.33 304.667 1045.47 304.534 1045.07 300.267C1044.8 296.934 1044 296 1041.73 295.867C1040 295.734 1038.13 295.6 1037.33 295.467C1036.67 295.467 1036 292 1036 288V280.667H1030.67H1025.33V288Z" fill="white"/>
<path d="M304.667 322.8C300.533 327.2 300.4 331.467 304.4 336C309.2 341.6 319.6 340.8 322.4 334.534C324.8 329.467 324.4 327.467 320.133 323.2C315.067 318.134 309.067 318 304.667 322.8Z" fill="white"/>
<path d="M966.4 342.533C936.133 350.667 933.867 391.733 963.067 404C969.067 406.533 980 406.533 985.867 404.133C992.133 401.467 999.733 394.4 1002.93 388.133C1006.93 380.533 1006.93 367.333 1003.07 359.867C998.933 352.133 990.667 345.2 982.533 342.8C974.4 340.267 974.533 340.267 966.4 342.533Z" fill="white"/>
<path d="M383.333 352.134C381.6 354 381.333 368.267 381.333 468.4C381.333 531.2 381.867 583.467 382.4 584.4C383.333 585.6 392.667 586 424.8 585.734L466 585.334L465.733 557.2L465.6 529.067L458 512.8C437.467 468.4 429.467 426.134 433.333 382.134C434.267 370.667 435.2 358.934 435.2 356L435.333 350.667L410.4 350.4C389.6 350.267 385.067 350.534 383.333 352.134Z" fill="white"/>
<path d="M1025.33 361.2C1025.33 368.4 1025.33 368.533 1021.07 368.933C1017.07 369.333 1016.67 369.733 1016.67 374C1016.67 378.133 1017.07 378.667 1020.67 379.333C1024.4 380 1024.67 380.4 1025.33 387.333L1026 394.667H1032H1038L1038.4 385.6C1038.8 376 1039.47 375.467 1045.73 378.267C1049.07 379.867 1049.33 380.667 1049.33 387.6V395.333H1054H1058.67V387.467C1058.67 380.267 1058.93 379.467 1061.73 379.067C1066 378.533 1066 370.8 1061.73 370.267C1059.2 369.867 1058.8 368.933 1058.4 362.267C1058 354.8 1058 354.667 1053.73 354.267L1049.33 353.867V361.867C1049.33 369.067 1049.07 370 1046.67 370C1045.2 370 1044 370.533 1044 371.333C1044 372 1042.93 372.667 1041.47 372.667C1038.53 372.667 1037.33 369.2 1037.33 360.267V354H1031.33H1025.33V361.2Z" fill="white"/>
<path d="M302.533 364.534C297.467 369.734 297.467 374.4 302.667 379.6C306.267 383.067 307.467 383.6 311.733 382.934C317.467 382 322.667 376.8 322.667 371.867C322.667 366.934 315.867 360.667 310.667 360.667C307.733 360.667 305.2 361.867 302.533 364.534Z" fill="white"/>
<path d="M960.267 421.467C940.267 431.334 936.533 456.267 952.533 472.134C964.933 484.667 981.733 485.467 994.667 474.267C1004.8 465.734 1008.4 453.867 1004.67 441.334C999.067 421.734 978.267 412.534 960.267 421.467Z" fill="white"/>
<path d="M1052.4 425.6C1048.53 434.8 1034.67 474.4 1034.67 476.267C1034.67 479.067 1043.47 478.534 1044.67 475.6C1048.53 466.267 1062.4 422.667 1061.87 421.867C1061.47 421.2 1059.73 420.667 1057.87 420.667C1055.33 420.667 1054 421.734 1052.4 425.6Z" fill="white"/>
<path d="M1027.2 426C1022.4 427.867 1020 432.667 1020 440.4C1020 446.133 1020.67 448.133 1023.33 450.667C1029.87 457.333 1039.2 453.067 1040.67 442.8C1042.13 433.6 1040.53 428.667 1035.2 426.533C1032.8 425.467 1030.53 424.667 1030.4 424.8C1030.13 424.8 1028.67 425.333 1027.2 426ZM1033.33 440.267C1033.33 446.133 1031.2 448.933 1029.2 445.867C1027.47 443.2 1027.73 434.8 1029.6 432.933C1031.87 430.667 1033.33 433.333 1033.33 440.267Z" fill="white"/>
<path d="M662 442C649.6 444 633.6 449.467 624 454.933C613.467 461.067 595.6 478.667 589.467 489.067C587.067 493.2 583.2 501.867 580.8 508.267L576.667 520L576.267 562.933C575.867 603.2 575.6 605.867 573.333 606.667C569.067 608 560.267 618.8 558.667 624.533C557.6 628.4 557.333 653.467 557.6 706.4L558 782.667L562.533 791.067C567.733 800.667 572.4 805.067 582.133 809.6L589.067 812.8L678.133 812.4L767.333 812L774.4 808.133C782.4 803.733 787.867 798 792.267 789.6L795.333 784L795.733 706.8C796.133 635.733 795.867 629.067 793.733 622.933C791.333 616.267 781.867 606 778.133 606C776.667 606 776.133 598.933 775.733 563.6C775.067 522.4 775.067 521.067 771.6 510.667C761.2 479.2 734.4 453.6 702.8 444.8C691.067 441.6 673.067 440.4 662 442ZM698.933 488.267C710.267 493.6 719.733 502.4 725.333 512.8C729.2 520 729.867 522.8 730.933 536.533C731.6 545.067 731.733 564.133 731.2 578.933L730.267 606H675.067H619.867L620.267 565.6L620.667 525.333L624.933 516.4C632 501.333 643.2 491.467 659.333 485.6C664.267 483.867 669.067 483.333 678 483.733C688.133 484 691.333 484.8 698.933 488.267ZM689.2 666.267C697.2 670.133 702.667 678.8 702.667 687.867C702.667 696.133 698.533 704.933 692.533 709.467L688 712.933V735.333V757.733L683.867 761.2C678.8 765.6 673.333 765.6 668.4 761.467L664.667 758.267L664.267 735.867L663.867 713.467L657.867 706.933C654.667 703.333 651.467 698 650.533 695.067C647.067 681.867 654.4 669.2 668.8 664C674.933 661.733 681.067 662.4 689.2 666.267Z" fill="white"/>
<path d="M320.667 444.4C292.933 444.667 283.2 445.067 282.4 446.4C280.8 448.933 281.067 580.4 282.667 583.467C284 585.867 285.867 586 323.333 586H362.667V516C362.667 450.667 362.533 446 360.4 445.067C359.067 444.533 341.2 444.133 320.667 444.4Z" fill="white"/>
<path d="M1063.6 445.6C1057.47 447.2 1054.8 464.8 1060 470C1061.6 471.6 1064.4 472.667 1067.33 472.667C1074.67 472.667 1077.33 469.067 1077.33 458.8C1077.33 451.067 1076.93 449.867 1073.87 447.467C1070.4 444.667 1068.4 444.4 1063.6 445.6ZM1069.07 458.934C1068.8 462.534 1068.13 465.334 1067.33 465.334C1066.67 465.334 1065.87 462.534 1065.6 458.934C1065.2 453.867 1065.6 452.667 1067.33 452.667C1069.07 452.667 1069.47 453.867 1069.07 458.934Z" fill="white"/>
<path d="M995.6 506.934C995.067 507.334 994.667 512.4 994.667 518.134C994.667 528 994.8 528.4 998 529.2C999.867 529.734 1002.8 529.734 1004.67 529.2C1007.87 528.4 1008 528 1008 518C1008 509.734 1007.6 507.467 1005.87 506.8C1003.07 505.734 996.667 505.734 995.6 506.934Z" fill="white"/>
<path d="M972.933 517.733C968.267 522.8 971.6 530 978.533 530C983.067 530 985.333 527.733 985.333 523.2C985.333 516.133 977.467 512.667 972.933 517.733Z" fill="white"/>
<path d="M1018.67 518C1015.33 521.334 1015.2 524.934 1018.4 527.734C1023.07 532 1032 529.334 1032 523.867C1032 521.2 1026 515.334 1023.33 515.334C1022.27 515.334 1020.13 516.534 1018.67 518Z" fill="white"/>
<path d="M954.267 541.733C947.733 548.533 950.8 556.133 959.733 555.067C964.533 554.533 966.8 546.4 963.467 541.333C960.667 537.067 958.667 537.2 954.267 541.733Z" fill="white"/>
<path d="M1039.47 540.933C1035.2 546.933 1038 555.333 1044.13 555.333C1052.27 555.333 1054.67 547.733 1048.53 541.467C1044.13 537.2 1042.13 537.067 1039.47 540.933Z" fill="white"/>
<path d="M972.8 541.467C971.467 544.933 971.867 552 973.6 553.733C974.533 554.667 977.067 555.333 979.333 555.333C984.667 555.333 986.667 553.2 986.667 547.333C986.667 544.667 986 541.867 985.067 540.933C982.667 538.533 973.733 538.933 972.8 541.467Z" fill="white"/>
<path d="M996.4 540.267C995.2 540.667 994.667 544.4 994.667 552C994.667 558.134 994.133 563.6 993.333 564C992.667 564.4 992 568.4 992 572.667C992 576.934 992.667 580.934 993.333 581.334C994.133 581.734 994.667 587.467 994.667 594C994.667 605.6 994.8 606 998 606.8C999.867 607.2 1002.93 607.2 1004.8 606.8C1008.27 605.867 1008.27 605.867 1007.73 593.734C1007.47 584.8 1007.73 581.467 1009.07 581.067C1011.07 580.267 1011.33 566.534 1009.33 565.334C1008.67 564.934 1008 559.6 1008 553.467C1008 546.8 1007.33 541.867 1006.4 540.934C1004.8 539.334 999.467 538.934 996.4 540.267Z" fill="white"/>
<path d="M1016.8 541.467C1015.47 544.933 1015.87 552 1017.6 553.733C1018.53 554.667 1021.07 555.333 1023.33 555.333C1028.67 555.333 1030.67 553.2 1030.67 547.867C1030.67 540.533 1029.6 539.333 1023.33 539.333C1019.33 539.333 1017.33 540 1016.8 541.467Z" fill="white"/>
<path d="M927.067 565.6C926 566 925.333 568.8 925.333 572.8V579.333H943.733C963.6 579.333 965.333 578.8 965.333 572.533C965.333 566.133 961.333 564.667 944 564.8C935.6 564.8 927.867 565.2 927.067 565.6Z" fill="white"/>
<path d="M973.333 567.333C966.133 574.533 974.933 584.133 984.133 579.333C987.866 577.333 987.6 569.467 983.733 566.8C979.733 564 976.533 564.133 973.333 567.333Z" fill="white"/>
<path d="M1017.47 566.533C1015.2 569.2 1015.2 576.133 1017.33 578.667C1020.13 582 1028.27 580.8 1030.13 576.8C1031.87 573.333 1030.53 567.6 1027.6 565.733C1024.93 564 1019.07 564.533 1017.47 566.533Z" fill="white"/>
<path d="M1038.13 568.133C1036.8 571.467 1037.2 576 1038.93 577.733C1040 578.8 1046.13 579.333 1057.6 579.333H1074.67V572.667V566H1056.8C1041.73 566 1038.8 566.267 1038.13 568.133Z" fill="white"/>
<path d="M865.733 581.733C862.667 588.133 857.2 592.667 852.133 592.667C849.6 592.667 849.333 593.467 849.333 602.533V612.267L853.333 613.067C859.333 614.4 863.867 617.867 866.8 623.6C869.2 628.267 870 628.8 873.6 628.4C877.067 628.133 878 627.2 878.933 624C880.4 618.267 884.4 614.4 890.667 612.667L896 611.2V602V592.667H891.067C884.4 592.533 880.267 589.2 878.133 582C876.667 576.8 875.867 576 872.533 575.733C869.067 575.333 868.267 576.133 865.733 581.733Z" fill="white"/>
<path d="M952.8 592.133C949.467 595.467 950.133 601.333 954.267 604.667C956.267 606.133 959.067 607.333 960.533 607.067C962.8 606.8 963.467 605.6 963.733 600.267C964 596.667 963.467 592.933 962.533 591.867C960.533 589.333 955.333 589.467 952.8 592.133Z" fill="white"/>
<path d="M974.133 592.133C972.933 593.333 972 596.4 972 599.467C972 603.867 972.533 604.933 975.333 606.267C977.733 607.333 980 607.467 982.4 606.533C985.333 605.467 986.133 604.4 986.4 600.133C987.067 591.733 979.467 586.667 974.133 592.133Z" fill="white"/>
<path d="M1018.4 591.467C1016.8 592.267 1016 594.4 1016 597.467C1016 604.533 1018 607.333 1023.07 607.333C1028.8 607.333 1030.67 605.333 1030.67 599.333C1030.67 591.733 1024.53 587.867 1018.4 591.467Z" fill="white"/>
<path d="M1040.27 591.067C1037.2 593.067 1036.67 601.733 1039.33 604.667C1042.27 607.867 1045.07 608 1049.07 605.2C1052.4 602.933 1053.2 594.4 1050.4 591.6C1048.53 589.733 1042.8 589.467 1040.27 591.067Z" fill="white"/>
<path d="M973.6 618C969.067 622.267 969.867 626.8 975.733 629.867C979.2 631.734 983.067 630.134 985.333 626C987.2 622.4 987.067 621.067 984 618C980.533 614.534 977.333 614.667 973.6 618Z" fill="white"/>
<path d="M1018.67 618C1015.33 621.333 1015.2 624.933 1018.4 627.733C1024.4 633.2 1033.6 627.733 1030.8 620.4C1028.67 614.8 1022.93 613.733 1018.67 618Z" fill="white"/>
<path d="M996.4 617.6C994.133 618.4 994.133 635.6 996.267 637.733C997.2 638.667 999.467 639.333 1001.33 639.333C1006.67 639.333 1008 636.933 1008 627.2C1008 620.267 1007.47 618.133 1005.87 617.467C1003.47 616.533 998.8 616.533 996.4 617.6Z" fill="white"/>
<path d="M461.333 620.534C459.867 623.467 459.333 785.334 460.933 804.4L461.733 815.334L469.867 820.4C474.4 823.334 483.2 828.4 489.733 831.867L501.333 838.134V729.734C501.333 647.067 500.933 620.8 499.733 619.6C498.667 618.534 492.4 618 480.4 618C464.267 618 462.667 618.267 461.333 620.534Z" fill="white"/>
<path d="M414 627.2L406 628V699.334V770.667L425.333 786.933L444.667 803.333L445.067 717.067C445.333 641.2 445.067 630.534 443.333 628.8C441.067 626.534 427.467 625.734 414 627.2Z" fill="white"/>
<path d="M353.067 642.134C350.933 643.334 350.667 646.534 350.667 677.6V711.734L359.6 721.867C364.4 727.467 373.067 736.934 378.8 743.067L389.2 754.267L390.133 749.067C390.667 746.4 390.667 721.6 390.267 694C389.6 648.534 389.333 643.867 387.2 642.4C384.267 640.267 356.533 640.134 353.067 642.134Z" fill="white"/>
<path d="M519.6 655.6L516.533 658.8L517.067 752C517.333 805.6 518.133 846 518.933 846.8C519.6 847.734 528.267 851.467 538.267 855.334C552.533 860.667 556.667 861.867 557.467 860.4C558.133 859.467 558.667 849.6 558.667 838.534C558.667 820.134 558.4 818.267 556 816C550.267 810.8 542.4 799.2 539.6 791.867C536.8 784.267 536.667 782 536 718.667L535.333 653.334L529.067 652.934C523.867 652.534 522.133 653.067 519.6 655.6Z" fill="white"/>
<path d="M859.467 654.4C857.2 656 857.067 661.467 856.933 746.4C856.8 796 857.2 836.667 857.733 836.667C859.467 836.667 869.333 831.333 884.4 822.4L898.667 813.867V735.333C898.667 665.733 898.4 656.667 896.533 654.8C893.733 652 863.2 651.733 859.467 654.4Z" fill="white"/>
<path d="M817.067 725.6C816.667 784.534 816.667 785.467 813.6 792.934C811.867 797.2 808.133 803.734 805.2 807.6L800 814.534V838.4V862.134L803.067 861.2C814.933 857.6 840.267 846.534 841.467 844.534C842.267 842.934 842.533 810.4 842.4 755.867C842 656.4 843.6 666 827.067 666H817.467L817.067 725.6Z" fill="white"/>
<path d="M971.733 674.134C969.467 675.334 969.333 678.667 969.333 715.067L969.467 754.667L979.467 744C985.067 738.134 993.733 728.4 998.8 722.534L1008 711.734V693.734C1008 681.6 1007.47 675.334 1006.4 674.267C1004.4 672.267 975.067 672.134 971.733 674.134Z" fill="white"/>
<path d="M915.067 687.6C914.267 688.533 913.333 690.4 912.8 691.867C911.467 695.733 913.6 800.667 915.067 800.667C916.667 800.667 923.733 795.067 941.067 780.267L953.333 769.6V730.8C953.333 697.733 953.067 691.467 951.2 688.933C949.333 686.133 948.267 686 932.8 686C921.2 686 916 686.533 915.067 687.6Z" fill="white"/>
<path d="M776.667 828.133C770 831.333 762 833.333 750.4 834.667L744 835.467V856.133V876.8L749.067 875.867C762.933 873.6 783.467 868.267 784.267 866.933C785.067 865.733 784.267 826 783.467 825.2C783.467 825.067 780.4 826.4 776.667 828.133Z" fill="white"/>
<path d="M573.333 847.867C573.333 868 573.333 868.4 576.4 869.067C588 871.733 611.6 876.667 613.067 876.667C614.4 876.667 614.667 872 614.4 855.6L614 834.667L601.333 833.867C593.2 833.333 586 832 581.333 830.133C577.333 828.667 573.867 827.333 573.733 827.333C573.467 827.333 573.333 836.533 573.333 847.867Z" fill="white"/>
<path d="M629.867 835.2C629.6 835.467 629.333 845.867 629.333 858.133V880.4L637.867 881.333C650 882.667 670.533 882.8 670.667 881.6C670.667 881.067 670.667 870.533 670.667 858.133V835.467L650.533 835.067C639.467 834.8 630.133 834.933 629.867 835.2Z" fill="white"/>
<path d="M687.733 834.8C687.067 835.333 686.667 846.533 686.667 859.733V883.733L701.067 882.933C708.933 882.4 718.133 881.733 721.733 881.2L728 880.267V857.867V835.333H720.267C715.867 835.333 707.067 834.933 700.533 834.533C694 834 688.267 834.133 687.733 834.8Z" fill="white"/>
</svg>
